PathFileType	4	(X/Y/Z)	9_coords_data.trc
DataRate	CameraRate	NumFrames	NumMarkers	Units	OrigDataRate	OrigDataStartFrame	OrigNumFrames
30.0	30.0	6	21	m	30.0	30	49
Frame#	Time	THUMB_TIP	THUMB_IP	THUMB_MCP	THUMB_CMC	INDEX_TIP	INDEX_DIP	INDEX_PIP	INDEX_MCP	MIDDLE_TIP	MIDDLE_DIP	MIDDLE_PIP	MIDDLE_MCP	RING_TIP	RING_DIP	RING_PIP	RING_MCP	PINKY_TIP	PINKY_DIP	PINKY_PIP	PINKY_MCP	WRIST
X1	Y1	Z1	X2	Y2	Z2	X3	Y3	Z3	X4	Y4	Z4	X5	Y5	Z5	X6	Y6	Z6	X7	Y7	Z7	X8	Y8	Z8	X9	Y9	Z9	X10	Y10	Z10	X11	Y11	Z11	X12	Y12	Z12	X13	Y13	Z13	X14	Y14	Z14	X15	Y15	Z15	X16	Y16	Z16	X17	Y17	Z17	X18	Y18	Z18	X19	Y19	Z19	X20	Y20	Z20	X21	Y21	Z21
28	0.9666666666666625	0.5284889894050324	-0.0217466664744711	-0.1544016896779868	0.5104100997765042	-0.023456113125253863	-0.14032221731757422	0.4894682347113539	-0.024599807105228133	-0.11732329882836662	0.4804210409576757	-0.027374232351521477	-0.07373039975367632	0.5882532712860012	0.02756675458183311	-0.1446654843959087	0.5716034422475984	0.029330711647880592	-0.13776101856131304	0.5487657511475637	0.030038328495806232	-0.12727536280614316	0.5153384278598739	0.012654609298924813	-0.10742450744159382	0.606713214815188	0.03198853784053057	-0.11871640754404664	0.5896220801461977	0.032261574031193785	-0.11273154606152067	0.5625087874523425	0.033256511717703385	-0.1020878151227331	0.5231593474901025	0.018377865741911137	-0.0870413740290682	0.6060037597799	0.028168267822142656	-0.09479901835320828	0.5896859749145018	0.029679249215693315	-0.08728590765823452	0.5665208147490677	0.031121834051019315	-0.07825959708842384	0.5309120845160687	0.015129240650003983	-0.06772507661982577	0.5993424974788162	0.0010684745317811606	-0.0625736360549593	0.5854643617895698	0.0073483415014494735	-0.0547659077916208	0.5661322263001041	0.012113203271687856	-0.04810432774425505	0.5313704859685565	0.002596039592968502	-0.04671563928583944	0.462283081001861	-0.023011742144276925	-0.051989820119430985
29	0.9999999999999956	0.5310585478919191	-0.022226080179533536	-0.15247879067937403	0.5124383687454136	-0.02394742806939465	-0.13912491895638227	0.49082520476884817	-0.024960855557655037	-0.11674939421062211	0.4809022369046475	-0.027350487360203513	-0.07332458138875389	0.5896960707430979	0.030143652946501676	-0.14271858114765634	0.5728985952656986	0.030660027726052808	-0.1359674201605958	0.5499173103395797	0.03020473067230911	-0.125785913359665	0.5161693897563387	0.012728761686710333	-0.10656861754777558	0.6072890876194526	0.03783153345337731	-0.11538082963790805	0.5900773666966744	0.036284741101450746	-0.10996196478478393	0.5626943725434927	0.035062346209157935	-0.10005808009572828	0.5236332012834539	0.018527177733954403	-0.08602379976895111	0.6059374058565231	0.035376922811871436	-0.09113754730609322	0.5893022504058062	0.03472641957864264	-0.08422028999744524	0.5658453886529402	0.03367451504375252	-0.07592275346203853	0.5310155780571748	0.015417028804523114	-0.06652757788691152	0.6005080338215175	0.005909508802175667	-0.05818584506473151	0.5855749169525765	0.010524814693923745	-0.05120723688658138	0.5656076777113446	0.013573075659234712	-0.04547753522150577	0.531197534181243	0.002764594333863668	-0.045430581234282064	0.4622830810018609	-0.023011742144276925	-0.05198982011943101
30	1.0333333333333288	0.5333018570334122	-0.02249312969730477	-0.15076654433463982	0.5142366651115667	-0.02419509479281634	-0.1380534891630117	0.49208411516617057	-0.02518461053083365	-0.11621074690108518	0.48130136299170256	-0.02731119421614714	-0.07297765890851443	0.5909142224283283	0.031962583465922734	-0.14070952867963715	0.5740242346557008	0.03168379458217652	-0.13417878677700526	0.5509317971805994	0.030490180371807174	-0.12431347129419693	0.5168854439663731	0.012897302525503807	-0.10574003391989287	0.6074755462920427	0.04228949935073467	-0.11233668864862392	0.5902707117576816	0.03952070681497599	-0.10740440149769892	0.562777043707717	0.036679236225260814	-0.09816136022081709	0.5240085413338269	0.0187443565866815	-0.08506589394292641	0.6052580956922073	0.04126978676563642	-0.08778106955579143	0.5885422021968219	0.03905893140532346	-0.08140211797839986	0.5650364952932703	0.03600801961458355	-0.07376316129509178	0.5310468412381056	0.01575443058091619	-0.06544352293362779	0.6009933794016259	0.009689106423609983	-0.05440600636495124	0.5854038306491517	0.012953374063953582	-0.048136195644807145	0.5650741719143159	0.014743985457724595	-0.04320560688061137	0.5309820048746712	0.0030198256250142386	-0.044278767520037066	0.4622830810018609	-0.023011742144276925	-0.051989820119430985
31	1.0666666666666622	0.5350557879526366	-0.02255264595701756	-0.1493929403761051	0.5156623296910744	-0.024268505765820514	-0.13718844932675847	0.49309678008920454	-0.02526517883891599	-0.11577297328836697	0.48159639484121286	-0.02725255285197159	-0.07271857184461206	0.5918984621156126	0.03306649972192233	-0.13892067998251384	0.5749376122782917	0.032376849510437955	-0.13260768106110973	0.5517415335160314	0.03078308405127872	-0.12304673577749839	0.5174600305492518	0.01305489887558997	-0.10504323337615498	0.6074960215246129	0.04551523029664206	-0.10980700539621091	0.5903337442145122	0.04196163849974599	-0.10524321060763431	0.562806994614294	0.03800530140473968	-0.0965234053782977	0.5243190965941487	0.018918344072129556	-0.08425484039399694	0.6043573403458553	0.04573218341832552	-0.08505566564892744	0.5876752430896132	0.04241414587342718	-0.07908086372886997	0.5642426114767091	0.037908754532689715	-0.0719539286540467	0.5310718649778257	0.016011167159550643	-0.06454325540915523	0.6010905795406402	0.012442161015722042	-0.0514646366590687	0.5851266413896852	0.014768976560024738	-0.045742870486349396	0.5645967783404059	0.015662379292394668	-0.04143722608212502	0.5308219157751283	0.0031558720964819376	-0.04336838828535744	0.4622830810018609	-0.023011742144276925	-0.051989820119430985
32	1.0999999999999952	0.5362590072500344	-0.02247656991917102	-0.1484338485601897	0.5166574347482182	-0.02419988816252716	-0.1365675715666183	0.4938145967383142	-0.025220744696734854	-0.11544927136063948	0.48181388674283887	-0.02717312118389681	-0.07253003108711087	0.5926697046018747	0.03351484453334774	-0.13751351081134305	0.5756386788450732	0.03269097256737996	-0.13140897179067498	0.5523487573959295	0.030976180557323874	-0.12210043376072854	0.5178821773787621	0.013204021157552481	-0.10449812407735692	0.6074596472396194	0.047643262826474464	-0.1078844261912319	0.5903257511510552	0.04365438576795644	-0.103581117622432	0.5627854404803042	0.03903060062627939	-0.09524076696300945	0.5245427464873047	0.019049604322417313	-0.08364749029664664	0.6035228014115278	0.048784112737500496	-0.0830651305490287	0.5868936017047542	0.04477087982753469	-0.07737622215438814	0.5635515740348311	0.0393417430271098	-0.07060464945236233	0.5310639164982482	0.016229746365089448	-0.06388835939903073	0.6009691581984427	0.014439438363819779	-0.049410688503982336	0.584798369406243	0.016170457541735184	-0.04407129130544407	0.5641664011038228	0.016464703379555523	-0.04019220348034258	0.5306820978373287	0.0033016022406244794	-0.04272551241604777	0.4622830810018609	-0.023011742144276925	-0.051989820119430985
33	1.1333333333333284	0.5370105933578531	-0.022473855405351406	-0.14783559954649106	0.5172888490737725	-0.02420874580191934	-0.1361718541058003	0.4942743051989278	-0.025231247794892053	-0.11524088996395493	0.48193648474340056	-0.02715659978456686	-0.07241611668816245	0.5931581897016024	0.03347671034810329	-0.13654577203103715	0.5760589213814836	0.032752723768446734	-0.13062201761773995	0.552677731391899	0.03111415214153901	-0.12153109518410088	0.5181001781739744	0.013273403804292427	-0.1042181923013196	0.6074490858614054	0.04858636904485203	-0.10675526159839904	0.5903068158719479	0.04447201964205416	-0.10260620042745419	0.5627370495830117	0.03965735625322053	-0.09447376209533895	0.5246526174963931	0.019129638686705586	-0.08332312242090117	0.6029903738642535	0.05035802752479612	-0.0819355248597789	0.5863826074851738	0.04604943593397903	-0.07640215930150848	0.563082489982858	0.0402198700852513	-0.06982183519143417	0.5310397939449307	0.016378602319035873	-0.06353053835209985	0.6008199287691917	0.015503903620069592	-0.04833601420578276	0.584561333374637	0.01695047000088079	-0.04318183905333872	0.5638878645302996	0.016976373031383662	-0.039518639089479224	0.5305927412273813	0.0034032090021020034	-0.04236248041376012	0.4622830810018609	-0.023011742144276925	-0.051989820119430985
